<svg height='100px' width='100px'  fill="#FFFFFF" xmlns:x="http://ns.adobe.com/Extensibility/1.0/" xmlns:i="http://ns.adobe.com/AdobeIllustrator/10.0/" xmlns:graph="http://ns.adobe.com/Graphs/1.0/" xmlns="http://www.w3.org/2000/svg" xmlns:xlink="http://www.w3.org/1999/xlink" version="1.1" x="0px" y="0px" viewBox="0 0 50 50" enable-background="new 0 0 50 50" xml:space="preserve"><g><g i:extraneous="self"><path fill="#FFFFFF" d="M38.4,8.1h-4.1c0-1.6-1.4-3-3-3h-2.7c-0.5-1.8-2.1-3.1-4-3.1c-1.9,0-3.5,1.3-4,3.1H18c-1.6,0-3,1.3-3,3    h-4.1c-1.5,0-2.7,1.2-2.7,2.7v34.3c0,1.5,1.2,2.7,2.7,2.7h27.5c1.5,0,2.7-1.2,2.7-2.7V10.8C41.2,9.3,39.9,8.1,38.4,8.1z M22.8,5.1    c0.3-0.7,1-1.1,1.8-1.1c0.8,0,1.5,0.4,1.8,1.1c0.2,0.3,0.3,0.6,0.3,1s-0.1,0.7-0.3,1c-0.3,0.5-0.7,0.8-1.2,1    c-0.2,0.1-0.4,0.1-0.7,0.1c-0.2,0-0.5,0-0.7-0.1c-0.5-0.2-0.9-0.5-1.2-1c-0.2-0.3-0.3-0.6-0.3-1S22.7,5.4,22.8,5.1z M17,10.1v-2    c0,0,0,0,0,0c0-0.5,0.5-1,1-1h2.7c0.1,0.3,0.2,0.7,0.4,1c0.5,1,1.5,1.7,2.6,2c0.3,0.1,0.7,0.1,1,0.1c0.3,0,0.7,0,1-0.1    c1.1-0.3,2.1-1,2.6-2c0.2-0.3,0.3-0.6,0.4-1h2.7c0.5,0,1,0.4,1,1c0,0,0,0,0,0v2c0,0,0,0,0,0c0,0.6-0.5,1-1,1H18    C17.5,11.1,17,10.6,17,10.1C17,10.1,17,10.1,17,10.1z M39.2,45.1c0,0.4-0.3,0.7-0.7,0.7H10.9c-0.4,0-0.7-0.3-0.7-0.7V10.8    c0-0.4,0.3-0.7,0.7-0.7H15c0,1.7,1.4,3,3,3h13.4c1.6,0,3-1.3,3-3h4.1c0.4,0,0.7,0.3,0.7,0.7V45.1z"></path><path fill="#FFFFFF" d="M35.9,19.8h-9c-0.6,0-1-0.4-1-1s0.4-1,1-1h9c0.6,0,1,0.4,1,1S36.5,19.8,35.9,19.8z"></path><path fill="#FFFFFF" d="M35.9,28.3h-9c-0.6,0-1-0.4-1-1s0.4-1,1-1h9c0.6,0,1,0.4,1,1S36.5,28.3,35.9,28.3z"></path><path fill="#FFFFFF" d="M35.9,32.7h-9c-0.6,0-1-0.4-1-1s0.4-1,1-1h9c0.6,0,1,0.4,1,1S36.5,32.7,35.9,32.7z"></path><path fill="#FFFFFF" d="M35.8,37.2H13.6c-0.6,0-1-0.4-1-1s0.4-1,1-1h22.1c0.6,0,1,0.4,1,1S36.3,37.2,35.8,37.2z"></path><path fill="#FFFFFF" d="M35.8,41.6H13.6c-0.6,0-1-0.4-1-1s0.4-1,1-1h22.1c0.6,0,1,0.4,1,1S36.3,41.6,35.8,41.6z"></path><path fill="#FFFFFF" d="M20.8,22.1c0.4-0.6,0.6-1.3,0.6-2.1c0-2.2-1.8-4-4-4c-2.2,0-4,1.8-4,4c0,0.8,0.2,1.5,0.6,2.1    c-0.9,0.1-1.6,0.9-1.6,1.9v5c0,0.6,0.5,1,1,1s1-0.4,1-1v-4.9h6V29c0,0.6,0.5,1,1,1s1-0.4,1-1v-5C22.4,23.1,21.7,22.3,20.8,22.1z     M17.4,22.1c-1.1,0-2-0.9-2-2c0-1.1,0.9-2,2-2c1.1,0,2,0.9,2,2C19.4,21.2,18.5,22.1,17.4,22.1z"></path></g></g></svg>